# xmcd
#
# Track frame offsets: 
#        150
#        2560
#        15366
#        31116
#        47364
#        62835
#        77362
#        86048
#        93760
#        105685
#        119970
#        135461
#        145961
#
# Disc length: 2131 seconds
#
# Revision: 0
# Processed by: cddbd v1.5.1PL0 Copyright (c) Steve Scherf et al.
# Submitted via: ExactAudioCopy v0.90b4
#
DISCID=9708510d
DTITLE=Trucker Classics with Digital Sound Effects - The Truck Stops H
DTITLE=ere!
DYEAR=1998
DGENRE=Country
TTITLE0=Truck Jam
TTITLE1=Truck Drivin' Man
TTITLE2=Ramblin Fever
TTITLE3=Phantom 309
TTITLE4=Driving My Life Away
TTITLE5=Roll On, Big Mama
TTITLE6=Foggy Mountain Breakdown
TTITLE7=Truck Stop Row
TTITLE8=Roll On, Trucker
TTITLE9=Bob Motz and The Original Jet Truck
TTITLE10=Six Days On the Road
TTITLE11=On The Road Again
TTITLE12=Don't Stop!
EXTD=
EXTT0=
EXTT1=
EXTT2=
EXTT3=
EXTT4=
EXTT5=
EXTT6=
EXTT7=
EXTT8=
EXTT9=
EXTT10=
EXTT11=
EXTT12=
PLAYORDER=
